<mxfile host="app.diagrams.net" modified="2023-11-28T06:02:47.613Z" agent="Mozilla/5.0 (Windows NT 10.0; Win64; x64) AppleWebKit/537.36 (KHTML, like Gecko) Chrome/119.0.0.0 Safari/537.36" etag="KIf3yUYS8VDTw2PFC2fD" version="22.1.4" type="device" pages="2">
  <diagram name="customer" id="aWdlgq_iA5uUm9x0EPVW">
    <mxGraphModel dx="1500" dy="763" grid="1" gridSize="10" guides="1" tooltips="1" connect="1" arrows="1" fold="1" page="1" pageScale="1" pageWidth="850" pageHeight="1100" math="0" shadow="0">
      <root>
        <mxCell id="0" />
        <mxCell id="1" parent="0" />
        <mxCell id="p_PkVeaNvkj7uFXiOMM--2" value="&lt;b&gt;Admin&lt;/b&gt;" style="whiteSpace=wrap;html=1;align=center;" vertex="1" parent="1">
          <mxGeometry x="40" y="199" width="100" height="40" as="geometry" />
        </mxCell>
        <mxCell id="p_PkVeaNvkj7uFXiOMM--3" value="" style="endArrow=classic;html=1;rounded=0;entryX=0.042;entryY=0.316;entryDx=0;entryDy=0;entryPerimeter=0;" edge="1" parent="1" target="p_PkVeaNvkj7uFXiOMM--5">
          <mxGeometry width="50" height="50" relative="1" as="geometry">
            <mxPoint x="140" y="209" as="sourcePoint" />
            <mxPoint x="290" y="209" as="targetPoint" />
          </mxGeometry>
        </mxCell>
        <mxCell id="p_PkVeaNvkj7uFXiOMM--4" value="" style="endArrow=classic;html=1;rounded=0;entryX=0.995;entryY=0.704;entryDx=0;entryDy=0;exitX=0.025;exitY=0.66;exitDx=0;exitDy=0;exitPerimeter=0;entryPerimeter=0;" edge="1" parent="1" source="p_PkVeaNvkj7uFXiOMM--5" target="p_PkVeaNvkj7uFXiOMM--2">
          <mxGeometry width="50" height="50" relative="1" as="geometry">
            <mxPoint x="290" y="230" as="sourcePoint" />
            <mxPoint x="300" y="219" as="targetPoint" />
          </mxGeometry>
        </mxCell>
        <mxCell id="p_PkVeaNvkj7uFXiOMM--5" value="&lt;b&gt;Login&lt;/b&gt;" style="ellipse;whiteSpace=wrap;html=1;" vertex="1" parent="1">
          <mxGeometry x="240" y="192.5" width="91" height="53" as="geometry" />
        </mxCell>
        <mxCell id="p_PkVeaNvkj7uFXiOMM--6" value="" style="endArrow=classic;html=1;rounded=0;" edge="1" parent="1">
          <mxGeometry width="50" height="50" relative="1" as="geometry">
            <mxPoint x="331" y="218" as="sourcePoint" />
            <mxPoint x="421" y="218" as="targetPoint" />
          </mxGeometry>
        </mxCell>
        <mxCell id="p_PkVeaNvkj7uFXiOMM--7" value="&lt;b&gt;Dashboard&lt;/b&gt;" style="ellipse;whiteSpace=wrap;html=1;" vertex="1" parent="1">
          <mxGeometry x="421" y="190.5" width="91" height="53" as="geometry" />
        </mxCell>
        <mxCell id="p_PkVeaNvkj7uFXiOMM--8" value="" style="endArrow=classic;html=1;rounded=0;" edge="1" parent="1">
          <mxGeometry width="50" height="50" relative="1" as="geometry">
            <mxPoint x="512" y="218" as="sourcePoint" />
            <mxPoint x="622" y="218" as="targetPoint" />
          </mxGeometry>
        </mxCell>
        <mxCell id="p_PkVeaNvkj7uFXiOMM--9" value="&lt;b&gt;Add Sports Request&lt;/b&gt;" style="ellipse;whiteSpace=wrap;html=1;" vertex="1" parent="1">
          <mxGeometry x="620" y="189.5" width="91" height="50.5" as="geometry" />
        </mxCell>
        <mxCell id="p_PkVeaNvkj7uFXiOMM--10" value="" style="endArrow=classic;html=1;rounded=0;" edge="1" parent="1">
          <mxGeometry width="50" height="50" relative="1" as="geometry">
            <mxPoint x="650" y="320" as="sourcePoint" />
            <mxPoint x="650" y="241" as="targetPoint" />
          </mxGeometry>
        </mxCell>
        <mxCell id="p_PkVeaNvkj7uFXiOMM--11" value="" style="endArrow=classic;html=1;rounded=0;exitX=0.659;exitY=0.985;exitDx=0;exitDy=0;exitPerimeter=0;" edge="1" parent="1">
          <mxGeometry width="50" height="50" relative="1" as="geometry">
            <mxPoint x="679.9689999999999" y="240.70500000000004" as="sourcePoint" />
            <mxPoint x="680" y="320" as="targetPoint" />
          </mxGeometry>
        </mxCell>
        <mxCell id="p_PkVeaNvkj7uFXiOMM--12" value="" style="shape=partialRectangle;whiteSpace=wrap;html=1;left=0;right=0;fillColor=none;" vertex="1" parent="1">
          <mxGeometry x="630" y="320" width="88" height="20" as="geometry" />
        </mxCell>
        <mxCell id="p_PkVeaNvkj7uFXiOMM--16" value="" style="endArrow=none;html=1;rounded=0;entryX=0;entryY=1;entryDx=0;entryDy=0;" edge="1" parent="1" target="p_PkVeaNvkj7uFXiOMM--12">
          <mxGeometry width="50" height="50" relative="1" as="geometry">
            <mxPoint x="630" y="320" as="sourcePoint" />
            <mxPoint x="630" y="337" as="targetPoint" />
          </mxGeometry>
        </mxCell>
        <mxCell id="p_PkVeaNvkj7uFXiOMM--17" value="" style="endArrow=none;html=1;rounded=0;entryX=0;entryY=1;entryDx=0;entryDy=0;" edge="1" parent="1">
          <mxGeometry width="50" height="50" relative="1" as="geometry">
            <mxPoint x="644" y="320" as="sourcePoint" />
            <mxPoint x="644" y="340" as="targetPoint" />
          </mxGeometry>
        </mxCell>
        <mxCell id="p_PkVeaNvkj7uFXiOMM--18" value="" style="endArrow=classic;html=1;rounded=0;exitX=0.5;exitY=1;exitDx=0;exitDy=0;entryX=0.461;entryY=0.042;entryDx=0;entryDy=0;entryPerimeter=0;" edge="1" parent="1" source="p_PkVeaNvkj7uFXiOMM--7" target="p_PkVeaNvkj7uFXiOMM--19">
          <mxGeometry width="50" height="50" relative="1" as="geometry">
            <mxPoint x="522" y="228" as="sourcePoint" />
            <mxPoint x="467" y="310" as="targetPoint" />
          </mxGeometry>
        </mxCell>
        <mxCell id="p_PkVeaNvkj7uFXiOMM--19" value="&lt;b&gt;Sports Category Request&lt;/b&gt;" style="ellipse;whiteSpace=wrap;html=1;" vertex="1" parent="1">
          <mxGeometry x="421" y="340" width="99" height="53" as="geometry" />
        </mxCell>
        <mxCell id="p_PkVeaNvkj7uFXiOMM--20" value="" style="endArrow=classic;html=1;rounded=0;entryX=0.394;entryY=0.99;entryDx=0;entryDy=0;entryPerimeter=0;" edge="1" parent="1" target="p_PkVeaNvkj7uFXiOMM--19">
          <mxGeometry width="50" height="50" relative="1" as="geometry">
            <mxPoint x="460" y="470" as="sourcePoint" />
            <mxPoint x="460" y="400" as="targetPoint" />
          </mxGeometry>
        </mxCell>
        <mxCell id="p_PkVeaNvkj7uFXiOMM--21" value="" style="endArrow=classic;html=1;rounded=0;exitX=0.659;exitY=0.985;exitDx=0;exitDy=0;exitPerimeter=0;" edge="1" parent="1">
          <mxGeometry width="50" height="50" relative="1" as="geometry">
            <mxPoint x="486.9989999999999" y="390.995" as="sourcePoint" />
            <mxPoint x="487.03" y="470.28999999999996" as="targetPoint" />
          </mxGeometry>
        </mxCell>
        <mxCell id="p_PkVeaNvkj7uFXiOMM--22" value="" style="shape=partialRectangle;whiteSpace=wrap;html=1;left=0;right=0;fillColor=none;" vertex="1" parent="1">
          <mxGeometry x="450" y="470" width="88" height="20" as="geometry" />
        </mxCell>
        <mxCell id="p_PkVeaNvkj7uFXiOMM--23" value="" style="endArrow=none;html=1;rounded=0;entryX=0;entryY=1;entryDx=0;entryDy=0;" edge="1" target="p_PkVeaNvkj7uFXiOMM--22" parent="1">
          <mxGeometry width="50" height="50" relative="1" as="geometry">
            <mxPoint x="450" y="470" as="sourcePoint" />
            <mxPoint x="450" y="487" as="targetPoint" />
          </mxGeometry>
        </mxCell>
        <mxCell id="p_PkVeaNvkj7uFXiOMM--24" value="" style="endArrow=none;html=1;rounded=0;entryX=0;entryY=1;entryDx=0;entryDy=0;" edge="1" parent="1">
          <mxGeometry width="50" height="50" relative="1" as="geometry">
            <mxPoint x="464" y="470" as="sourcePoint" />
            <mxPoint x="464" y="490" as="targetPoint" />
          </mxGeometry>
        </mxCell>
        <mxCell id="p_PkVeaNvkj7uFXiOMM--26" value="" style="endArrow=classic;html=1;rounded=0;" edge="1" parent="1">
          <mxGeometry width="50" height="50" relative="1" as="geometry">
            <mxPoint x="467" y="190" as="sourcePoint" />
            <mxPoint x="467" y="100" as="targetPoint" />
          </mxGeometry>
        </mxCell>
        <mxCell id="p_PkVeaNvkj7uFXiOMM--27" value="&lt;b&gt;Add Admin Request&lt;/b&gt;" style="ellipse;whiteSpace=wrap;html=1;" vertex="1" parent="1">
          <mxGeometry x="421" y="47" width="91" height="53" as="geometry" />
        </mxCell>
        <mxCell id="p_PkVeaNvkj7uFXiOMM--28" value="" style="endArrow=classic;html=1;rounded=0;exitX=0.96;exitY=0.314;exitDx=0;exitDy=0;exitPerimeter=0;" edge="1" parent="1" source="p_PkVeaNvkj7uFXiOMM--27">
          <mxGeometry width="50" height="50" relative="1" as="geometry">
            <mxPoint x="505.99800000000005" y="63.98499999999996" as="sourcePoint" />
            <mxPoint x="620" y="64" as="targetPoint" />
          </mxGeometry>
        </mxCell>
        <mxCell id="p_PkVeaNvkj7uFXiOMM--29" value="" style="endArrow=classic;html=1;rounded=0;entryX=1;entryY=0.5;entryDx=0;entryDy=0;" edge="1" parent="1" target="p_PkVeaNvkj7uFXiOMM--27">
          <mxGeometry width="50" height="50" relative="1" as="geometry">
            <mxPoint x="620" y="74.02" as="sourcePoint" />
            <mxPoint x="511.9090000000001" y="72.97899999999994" as="targetPoint" />
          </mxGeometry>
        </mxCell>
        <mxCell id="p_PkVeaNvkj7uFXiOMM--30" value="" style="shape=partialRectangle;whiteSpace=wrap;html=1;left=0;right=0;fillColor=none;" vertex="1" parent="1">
          <mxGeometry x="620" y="60" width="88" height="20" as="geometry" />
        </mxCell>
        <mxCell id="p_PkVeaNvkj7uFXiOMM--31" value="" style="endArrow=none;html=1;rounded=0;entryX=0;entryY=1;entryDx=0;entryDy=0;" edge="1" target="p_PkVeaNvkj7uFXiOMM--30" parent="1">
          <mxGeometry width="50" height="50" relative="1" as="geometry">
            <mxPoint x="620" y="60" as="sourcePoint" />
            <mxPoint x="620" y="77" as="targetPoint" />
          </mxGeometry>
        </mxCell>
        <mxCell id="p_PkVeaNvkj7uFXiOMM--32" value="" style="endArrow=none;html=1;rounded=0;entryX=0;entryY=1;entryDx=0;entryDy=0;" edge="1" parent="1">
          <mxGeometry width="50" height="50" relative="1" as="geometry">
            <mxPoint x="634" y="60" as="sourcePoint" />
            <mxPoint x="634" y="80" as="targetPoint" />
          </mxGeometry>
        </mxCell>
        <mxCell id="p_PkVeaNvkj7uFXiOMM--33" value="" style="endArrow=classic;html=1;rounded=0;exitX=0;exitY=1;exitDx=0;exitDy=0;" edge="1" parent="1">
          <mxGeometry width="50" height="50" relative="1" as="geometry">
            <mxPoint x="434.351925026652" y="236.75304373445329" as="sourcePoint" />
            <mxPoint x="580" y="570" as="targetPoint" />
            <Array as="points">
              <mxPoint x="434" y="290" />
              <mxPoint x="210" y="290" />
              <mxPoint x="210" y="570" />
            </Array>
          </mxGeometry>
        </mxCell>
        <mxCell id="p_PkVeaNvkj7uFXiOMM--34" value="&lt;b&gt;Manage User Request&lt;/b&gt;" style="ellipse;whiteSpace=wrap;html=1;" vertex="1" parent="1">
          <mxGeometry x="580" y="540" width="91" height="53" as="geometry" />
        </mxCell>
        <mxCell id="p_PkVeaNvkj7uFXiOMM--35" value="" style="shape=partialRectangle;whiteSpace=wrap;html=1;left=0;right=0;fillColor=none;" vertex="1" parent="1">
          <mxGeometry x="591" y="672" width="88" height="20" as="geometry" />
        </mxCell>
        <mxCell id="p_PkVeaNvkj7uFXiOMM--36" value="" style="endArrow=none;html=1;rounded=0;entryX=0;entryY=1;entryDx=0;entryDy=0;" edge="1" target="p_PkVeaNvkj7uFXiOMM--35" parent="1">
          <mxGeometry width="50" height="50" relative="1" as="geometry">
            <mxPoint x="591" y="672" as="sourcePoint" />
            <mxPoint x="591" y="689" as="targetPoint" />
          </mxGeometry>
        </mxCell>
        <mxCell id="p_PkVeaNvkj7uFXiOMM--37" value="" style="endArrow=none;html=1;rounded=0;entryX=0;entryY=1;entryDx=0;entryDy=0;" edge="1" parent="1">
          <mxGeometry width="50" height="50" relative="1" as="geometry">
            <mxPoint x="605" y="672" as="sourcePoint" />
            <mxPoint x="605" y="692" as="targetPoint" />
          </mxGeometry>
        </mxCell>
        <mxCell id="p_PkVeaNvkj7uFXiOMM--38" value="" style="endArrow=classic;html=1;rounded=0;entryX=0.431;entryY=0.998;entryDx=0;entryDy=0;entryPerimeter=0;exitX=0.216;exitY=-0.005;exitDx=0;exitDy=0;exitPerimeter=0;" edge="1" parent="1" source="p_PkVeaNvkj7uFXiOMM--35">
          <mxGeometry width="50" height="50" relative="1" as="geometry">
            <mxPoint x="610" y="668" as="sourcePoint" />
            <mxPoint x="610" y="591" as="targetPoint" />
          </mxGeometry>
        </mxCell>
        <mxCell id="p_PkVeaNvkj7uFXiOMM--39" value="" style="endArrow=classic;html=1;rounded=0;exitX=0.659;exitY=0.985;exitDx=0;exitDy=0;exitPerimeter=0;" edge="1" parent="1">
          <mxGeometry width="50" height="50" relative="1" as="geometry">
            <mxPoint x="629.9989999999999" y="592.995" as="sourcePoint" />
            <mxPoint x="630.03" y="672.29" as="targetPoint" />
          </mxGeometry>
        </mxCell>
        <mxCell id="p_PkVeaNvkj7uFXiOMM--40" value="Login Request" style="text;strokeColor=none;align=center;fillColor=none;html=1;verticalAlign=middle;whiteSpace=wrap;rounded=0;" vertex="1" parent="1">
          <mxGeometry x="150" y="183" width="80" height="30" as="geometry" />
        </mxCell>
        <mxCell id="p_PkVeaNvkj7uFXiOMM--41" value="Login Success" style="text;strokeColor=none;align=center;fillColor=none;html=1;verticalAlign=middle;whiteSpace=wrap;rounded=0;" vertex="1" parent="1">
          <mxGeometry x="143" y="222.5" width="100" height="30" as="geometry" />
        </mxCell>
        <mxCell id="p_PkVeaNvkj7uFXiOMM--42" value="Login Success" style="text;strokeColor=none;align=center;fillColor=none;html=1;verticalAlign=middle;whiteSpace=wrap;rounded=0;" vertex="1" parent="1">
          <mxGeometry x="322" y="188.5" width="100" height="30" as="geometry" />
        </mxCell>
        <mxCell id="p_PkVeaNvkj7uFXiOMM--43" value="Add Sports" style="text;strokeColor=none;align=center;fillColor=none;html=1;verticalAlign=middle;whiteSpace=wrap;rounded=0;" vertex="1" parent="1">
          <mxGeometry x="512" y="191.5" width="100" height="30" as="geometry" />
        </mxCell>
        <mxCell id="p_PkVeaNvkj7uFXiOMM--44" value="Fetch" style="text;strokeColor=none;align=center;fillColor=none;html=1;verticalAlign=middle;whiteSpace=wrap;rounded=0;" vertex="1" parent="1">
          <mxGeometry x="576" y="260" width="100" height="30" as="geometry" />
        </mxCell>
        <mxCell id="p_PkVeaNvkj7uFXiOMM--45" value="Store" style="text;strokeColor=none;align=center;fillColor=none;html=1;verticalAlign=middle;whiteSpace=wrap;rounded=0;" vertex="1" parent="1">
          <mxGeometry x="652" y="260" width="100" height="30" as="geometry" />
        </mxCell>
        <mxCell id="p_PkVeaNvkj7uFXiOMM--46" value="Manage Sports Category" style="text;strokeColor=none;align=center;fillColor=none;html=1;verticalAlign=middle;whiteSpace=wrap;rounded=0;" vertex="1" parent="1">
          <mxGeometry x="464" y="291" width="100" height="30" as="geometry" />
        </mxCell>
        <mxCell id="p_PkVeaNvkj7uFXiOMM--47" value="Fetch" style="text;strokeColor=none;align=center;fillColor=none;html=1;verticalAlign=middle;whiteSpace=wrap;rounded=0;" vertex="1" parent="1">
          <mxGeometry x="390" y="410" width="100" height="30" as="geometry" />
        </mxCell>
        <mxCell id="p_PkVeaNvkj7uFXiOMM--48" value="Store" style="text;strokeColor=none;align=center;fillColor=none;html=1;verticalAlign=middle;whiteSpace=wrap;rounded=0;" vertex="1" parent="1">
          <mxGeometry x="460" y="410" width="100" height="30" as="geometry" />
        </mxCell>
        <mxCell id="p_PkVeaNvkj7uFXiOMM--49" value="Manage Users" style="text;strokeColor=none;align=center;fillColor=none;html=1;verticalAlign=middle;whiteSpace=wrap;rounded=0;" vertex="1" parent="1">
          <mxGeometry x="204" y="400" width="100" height="30" as="geometry" />
        </mxCell>
        <mxCell id="p_PkVeaNvkj7uFXiOMM--50" value="Manage Admin&amp;nbsp;" style="text;strokeColor=none;align=center;fillColor=none;html=1;verticalAlign=middle;whiteSpace=wrap;rounded=0;" vertex="1" parent="1">
          <mxGeometry x="464" y="120" width="100" height="30" as="geometry" />
        </mxCell>
        <mxCell id="p_PkVeaNvkj7uFXiOMM--60" value="" style="endArrow=classic;html=1;rounded=0;entryX=0.394;entryY=0.99;entryDx=0;entryDy=0;entryPerimeter=0;" edge="1" parent="1">
          <mxGeometry width="50" height="50" relative="1" as="geometry">
            <mxPoint x="280" y="192.5" as="sourcePoint" />
            <mxPoint x="280" y="114.5" as="targetPoint" />
          </mxGeometry>
        </mxCell>
        <mxCell id="p_PkVeaNvkj7uFXiOMM--61" value="" style="endArrow=classic;html=1;rounded=0;exitX=0.659;exitY=0.985;exitDx=0;exitDy=0;exitPerimeter=0;" edge="1" parent="1">
          <mxGeometry width="50" height="50" relative="1" as="geometry">
            <mxPoint x="300.9989999999999" y="115.20499999999998" as="sourcePoint" />
            <mxPoint x="301.03" y="194.49999999999994" as="targetPoint" />
          </mxGeometry>
        </mxCell>
        <mxCell id="p_PkVeaNvkj7uFXiOMM--62" value="" style="shape=partialRectangle;whiteSpace=wrap;html=1;left=0;right=0;fillColor=none;" vertex="1" parent="1">
          <mxGeometry x="254" y="95" width="88" height="20" as="geometry" />
        </mxCell>
        <mxCell id="p_PkVeaNvkj7uFXiOMM--63" value="" style="endArrow=none;html=1;rounded=0;entryX=0;entryY=1;entryDx=0;entryDy=0;" edge="1" target="p_PkVeaNvkj7uFXiOMM--62" parent="1">
          <mxGeometry width="50" height="50" relative="1" as="geometry">
            <mxPoint x="254" y="95" as="sourcePoint" />
            <mxPoint x="254" y="112" as="targetPoint" />
          </mxGeometry>
        </mxCell>
        <mxCell id="p_PkVeaNvkj7uFXiOMM--64" value="" style="endArrow=none;html=1;rounded=0;entryX=0;entryY=1;entryDx=0;entryDy=0;" edge="1" parent="1">
          <mxGeometry width="50" height="50" relative="1" as="geometry">
            <mxPoint x="268" y="95" as="sourcePoint" />
            <mxPoint x="268" y="115" as="targetPoint" />
          </mxGeometry>
        </mxCell>
        <mxCell id="p_PkVeaNvkj7uFXiOMM--65" value="Store" style="text;strokeColor=none;align=center;fillColor=none;html=1;verticalAlign=middle;whiteSpace=wrap;rounded=0;" vertex="1" parent="1">
          <mxGeometry x="209" y="140" width="100" height="30" as="geometry" />
        </mxCell>
        <mxCell id="p_PkVeaNvkj7uFXiOMM--66" value="Fetch" style="text;strokeColor=none;align=center;fillColor=none;html=1;verticalAlign=middle;whiteSpace=wrap;rounded=0;" vertex="1" parent="1">
          <mxGeometry x="270" y="140" width="100" height="30" as="geometry" />
        </mxCell>
        <mxCell id="p_PkVeaNvkj7uFXiOMM--67" value="&lt;b&gt;Admins&lt;/b&gt;" style="text;strokeColor=none;align=center;fillColor=none;html=1;verticalAlign=middle;whiteSpace=wrap;rounded=0;" vertex="1" parent="1">
          <mxGeometry x="264" y="92" width="60" height="30" as="geometry" />
        </mxCell>
        <mxCell id="p_PkVeaNvkj7uFXiOMM--68" value="&lt;b&gt;Admins&lt;/b&gt;" style="text;strokeColor=none;align=center;fillColor=none;html=1;verticalAlign=middle;whiteSpace=wrap;rounded=0;" vertex="1" parent="1">
          <mxGeometry x="634" y="55" width="60" height="30" as="geometry" />
        </mxCell>
        <mxCell id="p_PkVeaNvkj7uFXiOMM--69" value="&lt;b&gt;Sports&lt;/b&gt;" style="text;strokeColor=none;align=center;fillColor=none;html=1;verticalAlign=middle;whiteSpace=wrap;rounded=0;" vertex="1" parent="1">
          <mxGeometry x="638.5" y="315" width="60" height="30" as="geometry" />
        </mxCell>
        <mxCell id="p_PkVeaNvkj7uFXiOMM--70" value="&lt;b&gt;Sports&lt;/b&gt;" style="text;strokeColor=none;align=center;fillColor=none;html=1;verticalAlign=middle;whiteSpace=wrap;rounded=0;" vertex="1" parent="1">
          <mxGeometry x="460" y="465" width="60" height="30" as="geometry" />
        </mxCell>
        <mxCell id="p_PkVeaNvkj7uFXiOMM--71" value="&lt;b&gt;User_register&lt;/b&gt;" style="text;strokeColor=none;align=center;fillColor=none;html=1;verticalAlign=middle;whiteSpace=wrap;rounded=0;" vertex="1" parent="1">
          <mxGeometry x="615" y="667" width="60" height="30" as="geometry" />
        </mxCell>
      </root>
    </mxGraphModel>
  </diagram>
  <diagram id="F50r40OugVkz6j3rTjIo" name="admin">
    <mxGraphModel dx="1730" dy="438" grid="1" gridSize="10" guides="1" tooltips="1" connect="1" arrows="1" fold="1" page="1" pageScale="1" pageWidth="850" pageHeight="1100" math="0" shadow="0">
      <root>
        <mxCell id="0" />
        <mxCell id="1" parent="0" />
        <mxCell id="AA8aDsEazkY3nhucEgDg-1" style="edgeStyle=orthogonalEdgeStyle;rounded=0;orthogonalLoop=1;jettySize=auto;html=1;entryX=0;entryY=0.5;entryDx=0;entryDy=0;" edge="1" parent="1" source="AA8aDsEazkY3nhucEgDg-3" target="AA8aDsEazkY3nhucEgDg-21">
          <mxGeometry relative="1" as="geometry" />
        </mxCell>
        <mxCell id="AA8aDsEazkY3nhucEgDg-2" style="edgeStyle=orthogonalEdgeStyle;rounded=0;orthogonalLoop=1;jettySize=auto;html=1;entryX=0.5;entryY=0;entryDx=0;entryDy=0;" edge="1" parent="1" source="AA8aDsEazkY3nhucEgDg-3" target="AA8aDsEazkY3nhucEgDg-22">
          <mxGeometry relative="1" as="geometry" />
        </mxCell>
        <mxCell id="AA8aDsEazkY3nhucEgDg-3" value="Admin" style="rounded=0;whiteSpace=wrap;html=1;" vertex="1" parent="1">
          <mxGeometry x="-20" y="160" width="120" height="50" as="geometry" />
        </mxCell>
        <mxCell id="AA8aDsEazkY3nhucEgDg-4" style="edgeStyle=orthogonalEdgeStyle;rounded=0;orthogonalLoop=1;jettySize=auto;html=1;entryX=0;entryY=0.5;entryDx=0;entryDy=0;" edge="1" parent="1" source="AA8aDsEazkY3nhucEgDg-5" target="AA8aDsEazkY3nhucEgDg-12">
          <mxGeometry relative="1" as="geometry" />
        </mxCell>
        <mxCell id="AA8aDsEazkY3nhucEgDg-5" value="Admin Login form" style="ellipse;whiteSpace=wrap;html=1;aspect=fixed;" vertex="1" parent="1">
          <mxGeometry x="290" y="145" width="80" height="80" as="geometry" />
        </mxCell>
        <mxCell id="AA8aDsEazkY3nhucEgDg-6" style="edgeStyle=orthogonalEdgeStyle;rounded=0;orthogonalLoop=1;jettySize=auto;html=1;entryX=0.625;entryY=0.025;entryDx=0;entryDy=0;entryPerimeter=0;exitX=0.5;exitY=1;exitDx=0;exitDy=0;" edge="1" parent="1" source="AA8aDsEazkY3nhucEgDg-7">
          <mxGeometry relative="1" as="geometry">
            <mxPoint x="330" y="50" as="sourcePoint" />
            <mxPoint x="330" y="147" as="targetPoint" />
          </mxGeometry>
        </mxCell>
        <mxCell id="AA8aDsEazkY3nhucEgDg-7" value="MySQL Admin table" style="html=1;dashed=0;whiteSpace=wrap;shape=partialRectangle;right=0;left=0;" vertex="1" parent="1">
          <mxGeometry x="280" y="60" width="100" height="30" as="geometry" />
        </mxCell>
        <mxCell id="AA8aDsEazkY3nhucEgDg-8" value="Login &lt;br&gt;Credentials" style="text;html=1;align=center;verticalAlign=middle;resizable=0;points=[];autosize=1;strokeColor=none;fillColor=none;" vertex="1" parent="1">
          <mxGeometry x="215" y="150" width="80" height="40" as="geometry" />
        </mxCell>
        <mxCell id="AA8aDsEazkY3nhucEgDg-9" value="Respond" style="text;html=1;align=center;verticalAlign=middle;resizable=0;points=[];autosize=1;strokeColor=none;fillColor=none;" vertex="1" parent="1">
          <mxGeometry x="250" y="88" width="70" height="30" as="geometry" />
        </mxCell>
        <mxCell id="AA8aDsEazkY3nhucEgDg-10" style="edgeStyle=orthogonalEdgeStyle;rounded=0;orthogonalLoop=1;jettySize=auto;html=1;entryX=0.5;entryY=1;entryDx=0;entryDy=0;" edge="1" parent="1" source="AA8aDsEazkY3nhucEgDg-12" target="AA8aDsEazkY3nhucEgDg-15">
          <mxGeometry relative="1" as="geometry" />
        </mxCell>
        <mxCell id="AA8aDsEazkY3nhucEgDg-11" value="" style="edgeStyle=orthogonalEdgeStyle;rounded=0;orthogonalLoop=1;jettySize=auto;html=1;" edge="1" parent="1" source="AA8aDsEazkY3nhucEgDg-12" target="AA8aDsEazkY3nhucEgDg-25">
          <mxGeometry relative="1" as="geometry" />
        </mxCell>
        <mxCell id="AA8aDsEazkY3nhucEgDg-12" value="Admin dashboard" style="ellipse;whiteSpace=wrap;html=1;aspect=fixed;" vertex="1" parent="1">
          <mxGeometry x="450" y="145" width="80" height="80" as="geometry" />
        </mxCell>
        <mxCell id="AA8aDsEazkY3nhucEgDg-13" value="Login Success" style="text;html=1;align=center;verticalAlign=middle;resizable=0;points=[];autosize=1;strokeColor=none;fillColor=none;" vertex="1" parent="1">
          <mxGeometry x="360" y="150" width="100" height="30" as="geometry" />
        </mxCell>
        <mxCell id="AA8aDsEazkY3nhucEgDg-14" style="edgeStyle=orthogonalEdgeStyle;rounded=0;orthogonalLoop=1;jettySize=auto;html=1;exitX=1;exitY=0.5;exitDx=0;exitDy=0;entryX=0;entryY=0.75;entryDx=0;entryDy=0;" edge="1" parent="1" source="AA8aDsEazkY3nhucEgDg-15" target="AA8aDsEazkY3nhucEgDg-17">
          <mxGeometry relative="1" as="geometry" />
        </mxCell>
        <mxCell id="AA8aDsEazkY3nhucEgDg-15" value="Food Category" style="ellipse;whiteSpace=wrap;html=1;aspect=fixed;" vertex="1" parent="1">
          <mxGeometry x="490" y="20" width="80" height="80" as="geometry" />
        </mxCell>
        <mxCell id="AA8aDsEazkY3nhucEgDg-16" style="edgeStyle=orthogonalEdgeStyle;rounded=0;orthogonalLoop=1;jettySize=auto;html=1;entryX=0;entryY=0.5;entryDx=0;entryDy=0;exitX=1.038;exitY=0.388;exitDx=0;exitDy=0;exitPerimeter=0;" edge="1" parent="1" source="AA8aDsEazkY3nhucEgDg-22" target="AA8aDsEazkY3nhucEgDg-18">
          <mxGeometry relative="1" as="geometry">
            <mxPoint x="570" y="300" as="sourcePoint" />
          </mxGeometry>
        </mxCell>
        <mxCell id="AA8aDsEazkY3nhucEgDg-17" value="MySQL Food Category table" style="html=1;dashed=0;whiteSpace=wrap;shape=partialRectangle;right=0;left=0;" vertex="1" parent="1">
          <mxGeometry x="620" y="58" width="100" height="30" as="geometry" />
        </mxCell>
        <mxCell id="AA8aDsEazkY3nhucEgDg-18" value="MySQL Bill&lt;br&gt;&amp;nbsp;table" style="html=1;dashed=0;whiteSpace=wrap;shape=partialRectangle;right=0;left=0;" vertex="1" parent="1">
          <mxGeometry x="610" y="285" width="100" height="30" as="geometry" />
        </mxCell>
        <mxCell id="AA8aDsEazkY3nhucEgDg-19" value="" style="edgeStyle=orthogonalEdgeStyle;rounded=0;orthogonalLoop=1;jettySize=auto;html=1;" edge="1" parent="1" source="AA8aDsEazkY3nhucEgDg-21" target="AA8aDsEazkY3nhucEgDg-5">
          <mxGeometry relative="1" as="geometry" />
        </mxCell>
        <mxCell id="AA8aDsEazkY3nhucEgDg-20" style="edgeStyle=orthogonalEdgeStyle;rounded=0;orthogonalLoop=1;jettySize=auto;html=1;entryX=0;entryY=0.5;entryDx=0;entryDy=0;" edge="1" parent="1" source="AA8aDsEazkY3nhucEgDg-21" target="AA8aDsEazkY3nhucEgDg-7">
          <mxGeometry relative="1" as="geometry">
            <Array as="points">
              <mxPoint x="160" y="75" />
            </Array>
          </mxGeometry>
        </mxCell>
        <mxCell id="AA8aDsEazkY3nhucEgDg-21" value="Admin Registration form" style="ellipse;whiteSpace=wrap;html=1;aspect=fixed;" vertex="1" parent="1">
          <mxGeometry x="140" y="145" width="80" height="80" as="geometry" />
        </mxCell>
        <mxCell id="AA8aDsEazkY3nhucEgDg-22" value="Bill" style="ellipse;whiteSpace=wrap;html=1;aspect=fixed;" vertex="1" parent="1">
          <mxGeometry x="450" y="270" width="80" height="80" as="geometry" />
        </mxCell>
        <mxCell id="AA8aDsEazkY3nhucEgDg-23" value="Manage" style="text;html=1;align=center;verticalAlign=middle;resizable=0;points=[];autosize=1;strokeColor=none;fillColor=none;" vertex="1" parent="1">
          <mxGeometry x="490" y="230" width="70" height="30" as="geometry" />
        </mxCell>
        <mxCell id="AA8aDsEazkY3nhucEgDg-24" value="" style="edgeStyle=orthogonalEdgeStyle;rounded=0;orthogonalLoop=1;jettySize=auto;html=1;" edge="1" parent="1" source="AA8aDsEazkY3nhucEgDg-25" target="AA8aDsEazkY3nhucEgDg-27">
          <mxGeometry relative="1" as="geometry" />
        </mxCell>
        <mxCell id="AA8aDsEazkY3nhucEgDg-25" value="Order" style="ellipse;whiteSpace=wrap;html=1;" vertex="1" parent="1">
          <mxGeometry x="580" y="145" width="80" height="80" as="geometry" />
        </mxCell>
        <mxCell id="AA8aDsEazkY3nhucEgDg-26" value="Takes" style="text;html=1;align=center;verticalAlign=middle;resizable=0;points=[];autosize=1;strokeColor=none;fillColor=none;" vertex="1" parent="1">
          <mxGeometry x="530" y="160" width="50" height="30" as="geometry" />
        </mxCell>
        <mxCell id="AA8aDsEazkY3nhucEgDg-27" value="MySQL Food Category table" style="html=1;dashed=0;whiteSpace=wrap;shape=partialRectangle;right=0;left=0;" vertex="1" parent="1">
          <mxGeometry x="680" y="170" width="100" height="30" as="geometry" />
        </mxCell>
        <mxCell id="AA8aDsEazkY3nhucEgDg-28" value="Register Credential" style="text;html=1;align=center;verticalAlign=middle;resizable=0;points=[];autosize=1;strokeColor=none;fillColor=none;" vertex="1" parent="1">
          <mxGeometry x="150" y="50" width="130" height="30" as="geometry" />
        </mxCell>
      </root>
    </mxGraphModel>
  </diagram>
</mxfile>
